<svg xmlns="http://www.w3.org/2000/svg" version="1.1" xmlns:xlink="http://www.w3.org/1999/xlink" xmlns:svgjs="http://svgjs.dev/svgjs" width="2000" height="2250" viewBox="0 0 2000 2250"><g transform="matrix(1,0,0,1,0,0)"><svg viewBox="0 0 320 360" data-background-color="#ffffff" preserveAspectRatio="xMidYMid meet" height="2250" width="2000" xmlns="http://www.w3.org/2000/svg" xmlns:xlink="http://www.w3.org/1999/xlink"><g id="tight-bounds" transform="matrix(1,0,0,1,0,0)"><svg viewBox="0 0 320 360" height="360" width="320"><g><svg></svg></g><g><svg viewBox="0 0 320 360" height="360" width="320"><g><path xmlns="http://www.w3.org/2000/svg" d="M320 187.111c0-45.764-20.238-86.866-52.203-114.908-28.043-31.964-69.145-52.203-114.908-52.203-84.302 0-152.889 68.587-152.889 152.889 0 45.753 20.231 86.848 52.185 114.891 28.043 31.975 69.152 52.22 114.926 52.22 0.299 0 0.59-0.021 0.889-0.021 0.299 0 0.59 0.021 0.889 0.021 83.456 0 151.111-67.655 151.111-151.111 0-0.299-0.021-0.59-0.021-0.889 0-0.299 0.021-0.59 0.021-0.889zM59.833 263.097c-15.093-21.255-24.071-47.143-24.256-75.097 0.48-72.928 59.492-131.943 132.423-132.423 27.954 0.185 53.845 9.163 75.097 24.256 24.366 23.627 39.57 56.64 39.57 93.056 0 71.559-58.219 129.778-129.778 129.778-36.416 0-69.429-15.204-93.056-39.57zM3.556 172.889c0-82.343 66.99-149.333 149.333-149.333 35.051 0 67.292 12.167 92.8 32.462-22.98-13.824-49.863-21.796-78.578-21.796-84.302 0-152.889 68.587-152.889 152.889 0 28.708 7.968 55.584 21.785 78.56-20.288-25.5-32.452-57.739-32.451-92.782zM167.111 318.667c-35.84 0-68.363-14.418-92.107-37.743 21.952 15.89 48.864 25.298 77.885 25.298 73.522 0 133.333-59.812 133.333-133.333 0-29.02-9.408-55.932-25.298-77.885 23.324 23.744 37.742 56.267 37.743 92.107 0 72.54-59.015 131.556-131.556 131.556z" fill="#ff0000" fill-rule="nonzero" stroke="none" stroke-width="1" stroke-linecap="butt" stroke-linejoin="miter" stroke-miterlimit="10" stroke-dasharray="" stroke-dashoffset="0" font-family="none" font-weight="none" font-size="none" text-anchor="none" style="mix-blend-mode: normal" data-fill-palette-color="tertiary"></path></g><g transform="matrix(1,0,0,1,88.11959279778392,99)"><svg viewBox="0 0 143.76081440443215 162" height="162" width="143.76081440443215"><g><svg viewBox="0 0 143.76081440443215 162" height="162" width="143.76081440443215"><g><svg viewBox="0 0 143.76081440443215 162" height="162" width="143.76081440443215"><g id="textblocktransform"><svg viewBox="0 0 143.76081440443215 162" height="162" width="143.76081440443215" id="textblock"><g><svg viewBox="0 0 143.76081440443215 162" height="162" width="143.76081440443215"><path d="M143.424 34.746C142.748 17.93 140.822 13.256 140.822 13.256 134.909-4.064 127.528-0.331 120.898 2.157 109.192 2.258 97.534 5.958 85.855 7.942 61.342 8.245 36.62 3.267 12.228 15.543 9.937 19.309-2.377 16.282 0.408 36.898 1.137 45.474 3.8 54.992 3.719 62.861 4.084 64.24 4.591 61.079 4.807 63.063 5.564 68.411 6.801 65.888 7.815 69.05 6.402 77.491 7.416 84.52 8.383 91.885 6.679 93.802 4.496 92.894 3.516 99.25 3.415 103.858 2.868 102.983 2.266 102.782 1.827 102.647 0.941 103.152 1.09 104.598 1.597 109.541-0.579 112.4 0.786 117.243-0.153 122.489 1.435 127.03 1.219 132.713 1.192 133.857 1.34 134.832 1.577 135.101 2.624 136.547 1.097 139.372 1.259 142.433 12.005 163.351 23.664 148.89 34.673 158.508 37.532 151.782 35.383 160.896 36.525 159.484 37.417 157.836 38.066 164.663 39.073 160.795 39.228 159.685 38.992 157.062 39.546 157.567 39.837 157.836 40.093 157.768 40.134 156.221 40.195 153.901 39.661 155.347 39.519 154.136 41.053 148.015 40.675 162.578 42.114 161.972 42.047 160.19 41.628 157.634 42.486 157.97 43.338 155.414 43.365 153.295 44.122 159.046 44.149 160.291 44.284 161.165 44.5 161.771 46.865 155.515 49.217 163.99 51.698 161.165 53.218 158.071 54.678 162.847 56.219 161.67 56.76 160.728 57.307 159.046 57.828 161.871 64.201 162.477 70.993 159.954 77.035 161.972 93.182 158.206 110.436 163.519 127.461 158.542 131.475 156.625 135.645 153.901 139.558 151.715 139.558 151.715 142.728 145.728 142.728 118.824S143.404 95.282 143.505 73.859C143.607 52.436 144.08 51.561 143.404 34.746Z" opacity="1" fill="#ff0000" data-fill-palette-color="tertiary"></path><g transform="matrix(1,0,0,1,27.07200000000001,17.19)"><svg width="89.61681440443213" viewBox="2.700000047683716 -35.5 25.349998474121094 36.099998474121094" height="127.62" data-palette-color="#ffffff"><path d="M15.6 0.6L15.6 0.6Q12.5 0.6 10.63-0.53 8.75-1.65 8.05-2.95L8.05-2.95 7.85-2.95 7.85 0 2.7 0 2.7-10.2 7.85-10.2 7.85-8Q7.85-2.8 15.05-2.8L15.05-2.8Q18.75-2.8 20.5-4.3 22.25-5.8 22.25-8.35L22.25-8.35Q22.25-10.65 20.98-11.9 19.7-13.15 16.45-13.85L16.45-13.85 14.05-14.4Q11.55-14.9 9.53-15.8 7.5-16.7 6.08-18.05 4.65-19.4 3.88-21.25 3.1-23.1 3.1-25.6L3.1-25.6Q3.1-27.8 3.9-29.63 4.7-31.45 6.2-32.75 7.7-34.05 9.85-34.77 12-35.5 14.7-35.5L14.7-35.5Q17.75-35.5 19.58-34.43 21.4-33.35 22.05-32.1L22.05-32.1 22.25-32.1 22.25-34.9 27.4-34.9 27.4-24.85 22.25-24.85 22.25-27.05Q22.25-29.65 20.45-30.88 18.65-32.1 15.35-32.1L15.35-32.1Q11.9-32.1 10.28-30.63 8.65-29.15 8.65-27L8.65-27Q8.65-24.6 10.15-23.38 11.65-22.15 15.2-21.35L15.2-21.35 17.45-20.9Q22.5-19.75 25.28-17.25 28.05-14.75 28.05-10.15L28.05-10.15Q28.05-7.8 27.2-5.85 26.35-3.9 24.73-2.45 23.1-1 20.8-0.2 18.5 0.6 15.6 0.6Z" opacity="1" transform="matrix(1,0,0,1,0,0)" fill="#ffffff" class="wordmark-text-0" data-fill-palette-color="quaternary" id="text-0"></path></svg></g></svg></g></svg></g></svg></g><g></g></svg></g></svg></g></svg></g><defs></defs></svg><rect width="320" height="360" fill="none" stroke="none" visibility="hidden"></rect></g></svg></g></svg>